<?xml version="1.0" encoding="utf-8"?>
<!-- Generator: Adobe Illustrator 16.0.0, SVG Export Plug-In . SVG Version: 6.00 Build 0)  -->
<!DOCTYPE svg PUBLIC "-//W3C//DTD SVG 1.1//EN" "http://www.w3.org/Graphics/SVG/1.1/DTD/svg11.dtd">
<svg version="1.1" id="Слой_1" xmlns="http://www.w3.org/2000/svg" xmlns:xlink="http://www.w3.org/1999/xlink" x="0px" y="0px"
	 width="75.594px" height="75px" viewBox="0 0 75.594 75" enable-background="new 0 0 75.594 75" xml:space="preserve">
<g>
	<path fill="#36AB00" d="M51.594,28c0,0.553-0.447,1-1,1h-12c-0.553,0-1-0.447-1-1l0,0c0-0.553,0.447-1,1-1h12
		C51.146,27,51.594,27.447,51.594,28L51.594,28z"/>
	<g>
		<path fill="#36AB00" d="M53.594,25.166V33h3v-7.834c0-3.951-2.809-7.166-6.759-7.166h-31.67C14.215,18,11,21,11,25h2.627
			c0-2,2.242-4,4.538-4h31.67C52.131,21,53.594,22.869,53.594,25.166z"/>
	</g>
	<path fill="#FAAC03" d="M65.594,37.126c0-0.622-0.504-1.126-1.125-1.126h-12.75c-0.621,0-1.125,0.504-1.125,1.126v0.748
		c0,0.622,0.504,1.126,1.125,1.126h12.75c0.621,0,1.125-0.504,1.125-1.126V37.126z"/>
	<path fill="#FAAC03" d="M64.594,42.126c0-0.622-0.504-1.126-1.125-1.126h-12.75c-0.621,0-1.125,0.504-1.125,1.126v0.748
		c0,0.622,0.504,1.126,1.125,1.126h12.75c0.621,0,1.125-0.504,1.125-1.126V42.126z"/>
	<path fill="#FAAC03" d="M65.594,47.126c0-0.622-0.504-1.126-1.125-1.126h-12.75c-0.621,0-1.125,0.504-1.125,1.126v0.748
		c0,0.622,0.504,1.126,1.125,1.126h12.75c0.621,0,1.125-0.504,1.125-1.126V47.126z"/>
	<path fill="#FAAC03" d="M64.594,52.126c0-0.622-0.504-1.126-1.125-1.126h-12.75c-0.621,0-1.125,0.504-1.125,1.126v0.748
		c0,0.622,0.504,1.126,1.125,1.126h12.75c0.621,0,1.125-0.504,1.125-1.126V52.126z"/>
	<path fill="#36AB00" d="M43.328,64.43c-0.775,0-1.51-0.172-2.454-0.524l-24.08-8.056l-0.614-0.21
		c-2.154-1.026-5.586-2.577-5.586-7.14v-23c0-3.285,2.208-6.684,5.563-6.684c0.517,0,1.152,0.085,1.688,0.252l24.216,8.139
		c1.555,0.595,5.533,2.175,5.533,7.293v23C47.594,59.214,47.797,64.43,43.328,64.43z M18.063,53.106l23.911,7.971
		c0.645,0.239,0.948,0.353,1.354,0.353c0.514,0,1.266,0,1.266-3.93v-23c0-2.817-1.736-3.796-3.555-4.491l-0.197-0.116l-23.867-7.97
		c-0.217-0.067-0.629-0.106-0.843-0.106c-1.54,0-2.538,2.14-2.538,3.684v23c0,2.54,1.609,3.339,3.902,4.432L18.063,53.106z"/>
	<ellipse fill="#36AB00" cx="40.456" cy="46.825" rx="2.334" ry="3.386"/>
</g>
</svg>
