<?xml version="1.0" encoding="utf-8"?>
<!-- Generator: Adobe Illustrator 16.0.0, SVG Export Plug-In . SVG Version: 6.00 Build 0)  -->
<!DOCTYPE svg PUBLIC "-//W3C//DTD SVG 1.1//EN" "http://www.w3.org/Graphics/SVG/1.1/DTD/svg11.dtd">
<svg version="1.1" id="Слой_1" xmlns="http://www.w3.org/2000/svg" xmlns:xlink="http://www.w3.org/1999/xlink" x="0px" y="0px"
	 width="64.938px" height="75px" viewBox="0 0 64.938 75" enable-background="new 0 0 64.938 75" xml:space="preserve">
<g>
	<path fill="#36AB00" d="M27.705,22.143c8.355,0,15.153,6.798,15.153,15.155c0,8.354-6.798,15.151-15.153,15.151
		s-15.153-6.797-15.153-15.151C12.552,28.94,19.351,22.143,27.705,22.143 M27.705,18.849c-10.188,0-18.445,8.258-18.446,18.448
		c0,10.186,8.259,18.444,18.446,18.444s18.446-8.258,18.446-18.444C46.153,27.107,37.893,18.849,27.705,18.849L27.705,18.849z"/>
	<path fill="#36AB00" d="M27.705,12.882c13.461,0,24.413,10.952,24.413,24.413c0,13.46-10.952,24.412-24.413,24.412
		c-13.462,0-24.412-10.951-24.412-24.412C3.293,23.834,14.245,12.882,27.705,12.882 M27.705,9.589
		C12.405,9.589,0.001,21.994,0,37.295C0,52.597,12.405,65,27.705,65C43.008,65,55.41,52.597,55.41,37.295
		C55.412,21.994,43.008,9.589,27.705,9.589L27.705,9.589z"/>
	<circle fill="#36AB00" cx="27.705" cy="37.297" r="5.36"/>
	<path fill="#FAAC03" d="M27.167,36.237l24.374-24.373c0.436-0.436,1.142-0.436,1.577,0c0.436,0.435,0.436,1.141,0,1.576
		L28.744,37.816c-0.435,0.435-1.142,0.435-1.577,0C26.732,37.38,26.732,36.673,27.167,36.237z"/>
	<path fill="#FAAC03" d="M46.977,8.271l8.231-8.231l2.246,6.734l-8.232,8.231L46.977,8.271z"/>
	<path fill="#FAAC03" d="M58.202,7.522l-8.231,8.231l6.734,2.245l8.231-8.231L58.202,7.522z"/>
</g>
</svg>
