<?xml version="1.0" encoding="utf-8"?>
<!-- Generator: Adobe Illustrator 16.0.0, SVG Export Plug-In . SVG Version: 6.00 Build 0)  -->
<!DOCTYPE svg PUBLIC "-//W3C//DTD SVG 1.1//EN" "http://www.w3.org/Graphics/SVG/1.1/DTD/svg11.dtd">
<svg version="1.1" id="Слой_1" xmlns="http://www.w3.org/2000/svg" xmlns:xlink="http://www.w3.org/1999/xlink" x="0px" y="0px"
	 width="75.594px" height="75px" viewBox="0 0 75.594 75" enable-background="new 0 0 75.594 75" xml:space="preserve">
<g>
	<path fill="#36AB00" d="M31.293,24.543c-0.256,0-0.512-0.098-0.708-0.293c-0.39-0.391-0.39-1.024,0-1.414l1.429-1.428
		c0.391-0.391,1.023-0.391,1.414,0l1.414,1.414c0.391,0.391,0.391,1.023,0,1.414s-1.023,0.391-1.414,0l-0.707-0.707L32,24.25
		C31.805,24.445,31.549,24.543,31.293,24.543z"/>
	<path fill="#36AB00" d="M18.292,33.594c-0.12,0-0.241-0.021-0.359-0.066c-0.516-0.198-0.773-0.777-0.574-1.293l0.69-1.795
		c0.095-0.248,0.286-0.447,0.529-0.556c0.243-0.107,0.518-0.114,0.767-0.017l1.863,0.725c0.515,0.2,0.77,0.779,0.57,1.294
		s-0.781,0.772-1.294,0.569l-0.928-0.36l-0.331,0.858C19.072,33.351,18.693,33.594,18.292,33.594z"/>
	<path fill="#36AB00" d="M29.004,59.322c-3.629,0-6.582-3.933-6.582-8.767c0-4.832,2.953-8.764,6.582-8.764
		c3.628,0,6.579,3.932,6.579,8.764C35.583,55.39,32.632,59.322,29.004,59.322z M29.004,43.792c-2.526,0-4.582,3.034-4.582,6.764
		c0,3.731,2.056,6.767,4.582,6.767c2.525,0,4.579-3.035,4.579-6.767C33.583,46.89,31.486,43.792,29.004,43.792z"/>
	<path fill="#36AB00" d="M10.594,46c-0.552,0-1-0.447-1-1v-2c0-0.553,0.854-1,1.406-1h2c0.552,0,1,0.447,1,1s-0.448,1-1,1h-1.406v1
		C11.594,45.553,11.146,46,10.594,46z"/>
	<path fill="#36AB00" d="M13,59h-2c-0.552,0-1.406-0.447-1.406-1v-2c0-0.553,0.448-1,1-1s1,0.447,1,1v1H13c0.552,0,1,0.447,1,1
		S13.552,59,13,59z"/>
	<path fill="#36AB00" d="M47.78,61.404C47.248,61.695,46.647,62,46,62H11c-2.068,0-4-1.933-4-4V43c0-2.067,1.932-4,4-4h35
		c0.724,0,1.395,0.341,1.968,0.697c0.581-0.627,1.207-1.021,1.881-1.549C48.786,37.314,47.452,37,46,37H11c-3.446,0-6,2.554-6,6v15
		c0,3.446,2.554,6,6,6h35c1.359,0,2.615-0.254,3.643-0.994C48.972,62.463,48.354,62.048,47.78,61.404z"/>
	<path fill="#FAAC03" d="M59.671,64.523c-5.587,0-10.586-3.334-12.726-8.494c-1.416-3.398-1.419-7.145-0.015-10.545
		c1.405-3.403,4.051-6.053,7.45-7.466c1.687-0.701,3.464-1.058,5.281-1.058c5.59,0,10.585,3.334,12.729,8.491
		c2.915,7.016-0.422,15.096-7.438,18.013C63.266,64.166,61.488,64.523,59.671,64.523z M59.662,38.507
		c-1.61,0-3.187,0.317-4.689,0.94c-3.018,1.252-5.365,3.607-6.611,6.629c-1.249,3.019-1.244,6.343,0.011,9.36
		c1.902,4.58,6.338,7.538,11.299,7.538c1.612,0,3.188-0.315,4.692-0.939c6.225-2.588,9.188-9.759,6.598-15.989
		C69.06,41.467,64.622,38.507,59.662,38.507z"/>
	
		<rect x="46.807" y="50.553" transform="matrix(0.3838 0.9234 -0.9234 0.3838 83.9416 -23.6561)" fill="#FAAC03" width="25.779" height="1.032"/>
	
		<rect x="59.181" y="38.182" transform="matrix(0.3843 0.9232 -0.9232 0.3843 83.9045 -23.6674)" fill="#FAAC03" width="1.029" height="25.777"/>
	<path fill="#FAAC03" d="M51.027,46.596c-2.076,0-3.454-0.373-3.494-0.386l0.283-0.991c0.396,0.115,9.808,2.635,16.325-6.814
		l0.848,0.586C60.551,45.424,54.701,46.596,51.027,46.596z"/>
	<path fill="#FAAC03" d="M55.146,62.963l-0.848-0.588c6.945-10.068,17.35-7.252,17.453-7.222l-0.28,0.993
		C71.071,56.032,61.666,53.513,55.146,62.963z"/>
	<path fill="#FAAC03" d="M64.517,63.3c-0.385-0.038-9.462-1.008-12.755-8.931c-3.287-7.908,2.262-15.616,2.498-15.942l0.833,0.611
		c-0.056,0.075-5.44,7.572-2.382,14.933c3.062,7.361,11.818,8.295,11.904,8.305L64.517,63.3z"/>
	<path fill="#FAAC03" d="M65.213,63.013l-0.797-0.653c0.055-0.068,5.566-6.949,2.512-14.294c-3.06-7.366-12.17-8.838-12.265-8.852
		l0.156-1.019c0.4,0.061,9.777,1.563,13.062,9.474C71.175,55.592,65.46,62.711,65.213,63.013z"/>
	<g>
		<path fill="#36AB00" d="M54.869,35.425L37.849,18.403c-1.181-1.181-2.75-1.831-4.42-1.831s-3.239,0.65-4.407,1.818l-8.077,7.855
			l1.743,1.792l8.09-7.867c1.417-1.419,3.887-1.415,5.303,0l16.293,16.293C53.171,36.053,54.002,35.698,54.869,35.425z"/>
	</g>
	<g>
		<path fill="#36AB00" d="M51.704,36.832L22.182,25.337c-1.556-0.605-3.254-0.57-4.783,0.103c-1.528,0.672-2.704,1.898-3.31,3.455
			l-3.369,8.652l2.33,0.906l3.369-8.652c0.363-0.934,1.068-1.67,1.985-2.072c0.917-0.404,1.937-0.425,2.87-0.062l27.988,10.897
			C50.019,37.913,50.835,37.334,51.704,36.832z"/>
	</g>
</g>
</svg>
