<?xml version="1.0" encoding="utf-8"?>
<!-- Generator: Adobe Illustrator 16.0.0, SVG Export Plug-In . SVG Version: 6.00 Build 0)  -->
<!DOCTYPE svg PUBLIC "-//W3C//DTD SVG 1.1//EN" "http://www.w3.org/Graphics/SVG/1.1/DTD/svg11.dtd">
<svg version="1.1" id="Слой_1" xmlns="http://www.w3.org/2000/svg" xmlns:xlink="http://www.w3.org/1999/xlink" x="0px" y="0px"
	 width="141px" height="62px" viewBox="0 0 141 62" enable-background="new 0 0 141 62" xml:space="preserve">
<g>
	<g>
		<g>
			<polygon fill="#00A452" points="36.724,18.453 24.556,18.453 30.638,12.365 			"/>
			<polygon fill="#1BA85F" points="30.644,12.365 24.559,18.452 18.475,12.365 			"/>
			<polygon fill="#38AA51" points="48.88,18.453 36.712,18.453 42.795,12.365 			"/>
			<polygon fill="#E95328" points="73.209,18.453 61.037,18.453 67.118,12.365 			"/>
			<polygon fill="#EB6445" points="79.291,12.368 73.204,18.453 67.118,12.368 			"/>
			<polygon fill="#E7444A" points="85.368,18.453 73.203,18.453 79.285,12.365 			"/>
			<polygon fill="#AA4C96" points="103.61,12.368 97.526,18.453 91.444,12.368 			"/>
			<polygon fill="#83358A" points="109.694,18.453 97.524,18.453 103.605,12.365 			"/>
			<polygon fill="#B7497F" points="97.53,18.453 85.361,18.453 91.446,12.365 			"/>
			<polygon fill="#73358A" points="121.86,18.453 109.686,18.453 115.771,12.365 			"/>
			<polygon fill="#00A360" points="24.563,18.453 12.395,18.453 18.476,12.365 			"/>
			<polygon fill="#02AE99" points="12.167,13.2 0,13.2 6.084,7.118 			"/>
			<polygon fill="#92C145" points="43.402,8.019 31.229,8.019 37.313,1.931 			"/>
			<polygon fill="#EC7080" points="77.45,0.263 89.622,0.263 83.535,6.347 			"/>
			<polygon fill="#2AB2A5" points="12.167,13.2 6.084,19.285 0,13.2 			"/>
			<polygon fill="#A8CD82" points="37.971,48.305 31.885,54.39 25.8,48.305 			"/>
			<polygon fill="#CFDA6A" points="52.723,55.913 58.811,49.829 64.895,55.913 			"/>
			<polygon fill="#E6E67C" points="52.723,55.913 64.895,55.913 58.808,62 			"/>
			<polygon fill="#CD8EBD" points="109.693,42.789 103.608,48.874 97.526,42.789 			"/>
			<polygon fill="#80C6B1" points="24.559,42.789 18.472,48.874 12.387,42.789 			"/>
			<polygon fill="#C4D560" points="48.883,42.789 42.796,48.874 36.712,42.789 			"/>
			<polygon fill="#D8DE62" points="54.964,48.876 42.793,48.876 48.878,42.789 			"/>
			<polygon fill="#EBCA60" points="48.875,42.789 54.958,48.874 61.043,42.789 			"/>
			<polygon fill="#FABE61" points="85.371,42.789 79.286,48.874 73.198,42.789 			"/>
			<polygon fill="#FDCC68" points="79.291,48.876 67.118,48.876 73.204,42.789 			"/>
			<polygon fill="#FBC158" points="73.209,42.789 67.118,48.874 61.037,42.789 			"/>
			<polygon fill="#F198B6" points="97.53,42.789 91.447,48.874 85.362,42.789 			"/>
			<polygon fill="#BE90C0" points="115.776,48.876 103.605,48.876 109.688,42.789 			"/>
			<polygon fill="#A586BD" points="121.857,42.789 115.768,48.874 109.686,42.789 			"/>
			<polygon fill="#55B9A4" points="6.307,36.705 18.476,36.705 12.395,42.791 			"/>
			<polygon fill="#B0CC4D" points="54.964,36.705 48.877,42.789 42.793,36.705 			"/>
			<polygon fill="#6ABEA5" points="24.559,42.789 12.389,42.789 18.472,36.705 			"/>
			<polygon fill="#6EBC8F" points="30.638,36.705 24.555,42.789 18.467,36.705 			"/>
			<polygon fill="#8CC58A" points="36.723,42.789 24.551,42.789 30.633,36.705 			"/>
			<polygon fill="#98C560" points="42.801,36.705 36.712,42.789 30.632,36.705 			"/>
			<polygon fill="#AACA4F" points="48.883,42.789 36.712,42.789 42.796,36.705 			"/>
			<polygon fill="#F7AC3D" points="67.127,36.705 61.042,42.789 54.957,36.705 			"/>
			<polygon fill="#E3B747" points="48.875,42.791 61.043,42.791 54.961,36.705 			"/>
			<polygon fill="#F6A538" points="79.291,36.705 73.204,42.789 67.118,36.705 			"/>
			<polygon fill="#F7AE53" points="85.368,42.791 73.203,42.791 79.285,36.705 			"/>
			<polygon fill="#F8B239" points="73.209,42.791 61.037,42.791 67.123,36.705 			"/>
			<polygon fill="#F39869" points="91.45,36.705 85.365,42.789 79.282,36.705 			"/>
			<polygon fill="#F08EAC" points="97.53,42.789 85.362,42.789 91.446,36.705 			"/>
			<polygon fill="#C774AC" points="103.613,36.705 97.527,42.789 91.444,36.705 			"/>
			<polygon fill="#C87DB2" points="109.694,42.789 97.524,42.789 103.605,36.705 			"/>
			<polygon fill="#9F72AE" points="115.776,36.705 109.688,42.786 103.605,36.705 			"/>
			<polygon fill="#9C7FB8" points="121.857,42.789 109.686,42.789 115.768,36.705 			"/>
			<polygon fill="#947AB5" points="127.936,36.705 121.852,42.786 115.768,36.705 			"/>
			<polygon fill="#43B49B" points="18.476,36.705 6.307,36.705 12.391,30.616 			"/>
			<polygon fill="#F28F2B" points="85.368,30.616 79.285,36.702 73.203,30.616 			"/>
			<polygon fill="#F28F2B" points="73.209,30.616 67.121,36.702 61.037,30.616 			"/>
			<polygon fill="#9BC44B" points="54.964,36.703 42.793,36.703 48.877,30.616 			"/>
			<polygon fill="#49B384" points="30.638,36.703 18.467,36.703 24.552,30.616 			"/>
			<polygon fill="#47B597" points="24.559,30.616 18.472,36.702 12.389,30.616 			"/>
			<polygon fill="#7EBA4B" points="42.801,36.705 30.632,36.705 36.716,30.616 			"/>
			<polygon fill="#73B858" points="48.883,30.616 42.798,36.702 36.712,30.616 			"/>
			<polygon fill="#80BB4F" points="36.719,30.616 30.633,36.702 24.551,30.616 			"/>
			<polygon fill="none" points="48.875,30.616 54.961,36.702 61.043,30.616 			"/>
			<polygon fill="#F3982F" points="67.124,36.703 54.957,36.703 61.04,30.616 			"/>
			<polygon fill="#F08666" points="91.449,36.703 79.282,36.703 85.365,30.616 			"/>
			<polygon fill="#F49D3A" points="79.291,36.703 67.118,36.703 73.203,30.616 			"/>
			<polygon fill="#BC6AA7" points="103.613,36.703 91.444,36.703 97.529,30.616 			"/>
			<polygon fill="#A566A6" points="97.524,30.616 103.608,36.702 109.696,30.616 			"/>
			<polygon fill="#DA6EA7" points="97.532,30.616 91.446,36.702 85.362,30.616 			"/>
			<polygon fill="#9563A5" points="115.776,36.703 103.605,36.703 109.686,30.616 			"/>
			<polygon fill="#8861A4" points="121.857,30.616 115.771,36.702 109.686,30.616 			"/>
			<polygon fill="#8C6CAC" points="127.94,36.703 115.768,36.703 121.849,30.616 			"/>
			<polygon fill="#B091C3" points="128.832,27.664 128.873,27.705 134.878,33.711 140.882,27.705 140.92,27.664 140.882,27.624 
				134.878,21.622 128.873,27.624 			"/>
			<polygon fill="#9E7EB6" points="128.832,27.705 134.916,21.621 141,27.705 			"/>
			<polygon fill="#ED7225" points="79.291,24.538 73.203,30.62 67.118,24.538 			"/>
			<polygon fill="#73B855" points="54.964,24.538 48.875,30.62 42.793,24.538 			"/>
			<polygon fill="#BCB64A" points="61.049,30.618 54.961,36.7 48.878,30.618 			"/>
			<polygon fill="#38AE75" points="30.638,24.538 24.555,30.62 18.47,24.538 			"/>
			<polygon fill="#00AB8C" points="18.476,24.538 12.392,30.62 6.307,24.538 			"/>
			<polygon fill="#53AF4F" points="42.801,24.538 36.716,30.619 30.632,24.538 			"/>
			<polygon fill="#F0843C" points="67.127,24.538 61.04,30.619 54.957,24.538 			"/>
			<polygon fill="#EB5E6F" points="91.449,24.538 85.365,30.619 79.282,24.538 			"/>
			<polygon fill="#B54D96" points="103.613,24.538 97.527,30.619 91.444,24.538 			"/>
			<polygon fill="#8E5099" points="115.776,24.538 109.688,30.619 103.604,24.538 			"/>
			<polygon fill="#EF7D2E" points="85.371,30.62 73.203,30.62 79.286,24.538 			"/>
			<polygon fill="#EF7D2E" points="73.209,30.62 61.037,30.62 67.121,24.538 			"/>
			<polygon fill="#09AC88" points="24.559,30.62 12.387,30.62 18.472,24.538 			"/>
			<polygon fill="#61B352" points="36.719,30.62 24.551,30.62 30.633,24.538 			"/>
			<polygon fill="#65B452" points="48.881,30.62 36.712,30.62 42.796,24.538 			"/>
			<polygon fill="#CF9E3D" points="48.871,30.62 61.046,30.62 54.958,24.538 			"/>
			<polygon fill="#A15299" points="97.524,30.62 109.696,30.62 103.604,24.538 			"/>
			<polygon fill="#CD62A1" points="97.532,30.62 85.362,30.62 91.447,24.538 			"/>
			<polygon fill="#84589F" points="121.857,30.62 109.686,30.62 115.768,24.538 			"/>
			<polygon fill="#80569E" points="127.94,24.538 121.852,30.619 115.768,24.538 			"/>
			<polygon fill="#EC6A2C" points="79.291,24.537 67.118,24.537 73.203,18.452 			"/>
			<polygon fill="#09A866" points="30.638,24.537 18.47,24.537 24.555,18.452 			"/>
			<polygon fill="#61B34D" points="54.964,24.537 42.793,24.537 48.875,18.452 			"/>
			<polygon fill="#AE4692" points="103.613,24.537 91.444,24.537 97.527,18.452 			"/>
			<polygon fill="#0EA970" points="24.563,18.453 18.476,24.537 12.395,18.453 			"/>
			<polygon fill="#00A681" points="18.476,24.537 6.307,24.537 12.392,18.452 			"/>
			<polygon fill="#2BA959" points="42.801,24.538 30.633,24.538 36.716,18.453 			"/>
			<polygon fill="#0EA75A" points="36.722,18.453 30.633,24.535 24.551,18.453 			"/>
			<polygon fill="#4FAF55" points="48.881,18.453 42.796,24.537 36.712,18.453 			"/>
			<polygon fill="#ED7538" points="67.124,24.537 54.957,24.537 61.04,18.452 			"/>
			<polygon fill="#EA602C" points="73.209,18.453 67.121,24.537 61.037,18.453 			"/>
			<polygon fill="#EA5A59" points="85.368,18.453 79.285,24.537 73.203,18.453 			"/>
			<polygon fill="#DE4D67" points="91.449,24.537 79.279,24.537 85.362,18.452 			"/>
			<polygon fill="#CB4C7E" points="97.53,18.453 91.446,24.537 85.361,18.453 			"/>
			<polygon fill="#8B3E8F" points="109.694,18.453 103.608,24.537 97.526,18.453 			"/>
			<polygon fill="#7CBB55" points="61.043,18.453 54.957,24.537 48.873,18.453 			"/>
			<polygon fill="#884794" points="115.779,24.537 103.608,24.537 109.691,18.452 			"/>
			<polygon fill="#774292" points="121.86,18.453 115.771,24.537 109.688,18.453 			"/>
			<polygon fill="#774C98" points="127.941,24.537 115.771,24.537 121.854,18.452 			"/>
		</g>
		<g>
			<polygon fill="#00A452" points="36.724,18.453 24.556,18.453 30.638,12.365 			"/>
			<polygon fill="#1BA85F" points="30.644,12.365 24.559,18.452 18.475,12.365 			"/>
			<polygon fill="#38AA51" points="48.88,18.453 36.712,18.453 42.795,12.365 			"/>
			<polygon fill="#E95328" points="73.209,18.453 61.037,18.453 67.118,12.365 			"/>
			<polygon fill="#EB6445" points="79.291,12.368 73.204,18.453 67.118,12.368 			"/>
			<polygon fill="#E7444A" points="85.368,18.453 73.203,18.453 79.285,12.365 			"/>
			<polygon fill="#AA4C96" points="103.61,12.368 97.526,18.453 91.444,12.368 			"/>
			<polygon fill="#83358A" points="109.694,18.453 97.524,18.453 103.605,12.365 			"/>
			<polygon fill="#B7497F" points="97.53,18.453 85.361,18.453 91.446,12.365 			"/>
			<polygon fill="#73358A" points="121.86,18.453 109.686,18.453 115.771,12.365 			"/>
			<polygon fill="#00A360" points="24.563,18.453 12.395,18.453 18.476,12.365 			"/>
			<polygon fill="#02AE99" points="12.167,13.2 0,13.2 6.084,7.118 			"/>
			<polygon fill="#92C145" points="43.402,8.019 31.229,8.019 37.313,1.931 			"/>
			<polygon fill="#EC7080" points="77.45,0.263 89.622,0.263 83.535,6.347 			"/>
			<polygon fill="#2AB2A5" points="12.167,13.2 6.084,19.285 0,13.2 			"/>
			<polygon fill="#A8CD82" points="37.971,48.305 31.885,54.39 25.8,48.305 			"/>
			<polygon fill="#CFDA6A" points="52.723,55.913 58.811,49.829 64.895,55.913 			"/>
			<polygon fill="#E6E67C" points="52.723,55.913 64.895,55.913 58.808,62 			"/>
			<polygon fill="#CD8EBD" points="109.693,42.789 103.608,48.874 97.526,42.789 			"/>
			<polygon fill="#80C6B1" points="24.559,42.789 18.472,48.874 12.387,42.789 			"/>
			<polygon fill="#C4D560" points="48.883,42.789 42.796,48.874 36.712,42.789 			"/>
			<polygon fill="#D8DE62" points="54.964,48.876 42.793,48.876 48.878,42.789 			"/>
			<polygon fill="#EBCA60" points="48.875,42.789 54.958,48.874 61.043,42.789 			"/>
			<polygon fill="#FABE61" points="85.371,42.789 79.286,48.874 73.198,42.789 			"/>
			<polygon fill="#FDCC68" points="79.291,48.876 67.118,48.876 73.204,42.789 			"/>
			<polygon fill="#FBC158" points="73.209,42.789 67.118,48.874 61.037,42.789 			"/>
			<polygon fill="#F198B6" points="97.53,42.789 91.447,48.874 85.362,42.789 			"/>
			<polygon fill="#BE90C0" points="115.776,48.876 103.605,48.876 109.688,42.789 			"/>
			<polygon fill="#A586BD" points="121.857,42.789 115.768,48.874 109.686,42.789 			"/>
			<polygon fill="#55B9A4" points="6.307,36.705 18.476,36.705 12.395,42.791 			"/>
			<polygon fill="#B0CC4D" points="54.964,36.705 48.877,42.789 42.793,36.705 			"/>
			<polygon fill="#6ABEA5" points="24.559,42.789 12.389,42.789 18.472,36.705 			"/>
			<polygon fill="#6EBC8F" points="30.638,36.705 24.555,42.789 18.467,36.705 			"/>
			<polygon fill="#8CC58A" points="36.723,42.789 24.551,42.789 30.633,36.705 			"/>
			<polygon fill="#98C560" points="42.801,36.705 36.712,42.789 30.632,36.705 			"/>
			<polygon fill="#AACA4F" points="48.883,42.789 36.712,42.789 42.796,36.705 			"/>
			<polygon fill="#F7AC3D" points="67.127,36.705 61.042,42.789 54.957,36.705 			"/>
			<polygon fill="#E3B747" points="48.875,42.791 61.043,42.791 54.961,36.705 			"/>
			<polygon fill="#F6A538" points="79.291,36.705 73.204,42.789 67.118,36.705 			"/>
			<polygon fill="#F7AE53" points="85.368,42.791 73.203,42.791 79.285,36.705 			"/>
			<polygon fill="#F8B239" points="73.209,42.791 61.037,42.791 67.123,36.705 			"/>
			<polygon fill="#F39869" points="91.45,36.705 85.365,42.789 79.282,36.705 			"/>
			<polygon fill="#F08EAC" points="97.53,42.789 85.362,42.789 91.446,36.705 			"/>
			<polygon fill="#C774AC" points="103.613,36.705 97.527,42.789 91.444,36.705 			"/>
			<polygon fill="#C87DB2" points="109.694,42.789 97.524,42.789 103.605,36.705 			"/>
			<polygon fill="#9F72AE" points="115.776,36.705 109.688,42.786 103.605,36.705 			"/>
			<polygon fill="#9C7FB8" points="121.857,42.789 109.686,42.789 115.768,36.705 			"/>
			<polygon fill="#947AB5" points="127.936,36.705 121.852,42.786 115.768,36.705 			"/>
			<polygon fill="#43B49B" points="18.476,36.705 6.307,36.705 12.391,30.616 			"/>
			<polygon fill="#F28F2B" points="85.368,30.616 79.285,36.702 73.203,30.616 			"/>
			<polygon fill="#F28F2B" points="73.209,30.616 67.121,36.702 61.037,30.616 			"/>
			<polygon fill="#9BC44B" points="54.964,36.703 42.793,36.703 48.877,30.616 			"/>
			<polygon fill="#49B384" points="30.638,36.703 18.467,36.703 24.552,30.616 			"/>
			<polygon fill="#47B597" points="24.559,30.616 18.472,36.702 12.389,30.616 			"/>
			<polygon fill="#7EBA4B" points="42.801,36.705 30.632,36.705 36.716,30.616 			"/>
			<polygon fill="#73B858" points="48.883,30.616 42.798,36.702 36.712,30.616 			"/>
			<polygon fill="#80BB4F" points="36.719,30.616 30.633,36.702 24.551,30.616 			"/>
			<polygon fill="none" points="48.875,30.616 54.961,36.702 61.043,30.616 			"/>
			<polygon fill="#F3982F" points="67.124,36.703 54.957,36.703 61.04,30.616 			"/>
			<polygon fill="#F08666" points="91.449,36.703 79.282,36.703 85.365,30.616 			"/>
			<polygon fill="#F49D3A" points="79.291,36.703 67.118,36.703 73.203,30.616 			"/>
			<polygon fill="#BC6AA7" points="103.613,36.703 91.444,36.703 97.529,30.616 			"/>
			<polygon fill="#A566A6" points="97.524,30.616 103.608,36.702 109.696,30.616 			"/>
			<polygon fill="#DA6EA7" points="97.532,30.616 91.446,36.702 85.362,30.616 			"/>
			<polygon fill="#9563A5" points="115.776,36.703 103.605,36.703 109.686,30.616 			"/>
			<polygon fill="#8861A4" points="121.857,30.616 115.771,36.702 109.686,30.616 			"/>
			<polygon fill="#8C6CAC" points="127.94,36.703 115.768,36.703 121.849,30.616 			"/>
			<polygon fill="#B091C3" points="128.832,27.664 128.873,27.705 134.878,33.711 140.882,27.705 140.92,27.664 140.882,27.624 
				134.878,21.622 128.873,27.624 			"/>
			<polygon fill="#9E7EB6" points="128.832,27.705 134.916,21.621 141,27.705 			"/>
			<polygon fill="#ED7225" points="79.291,24.538 73.203,30.62 67.118,24.538 			"/>
			<polygon fill="#73B855" points="54.964,24.538 48.875,30.62 42.793,24.538 			"/>
			<polygon fill="#BCB64A" points="61.049,30.618 54.961,36.7 48.878,30.618 			"/>
			<polygon fill="#38AE75" points="30.638,24.538 24.555,30.62 18.47,24.538 			"/>
			<polygon fill="#00AB8C" points="18.476,24.538 12.392,30.62 6.307,24.538 			"/>
			<polygon fill="#53AF4F" points="42.801,24.538 36.716,30.619 30.632,24.538 			"/>
			<polygon fill="#F0843C" points="67.127,24.538 61.04,30.619 54.957,24.538 			"/>
			<polygon fill="#EB5E6F" points="91.449,24.538 85.365,30.619 79.282,24.538 			"/>
			<polygon fill="#B54D96" points="103.613,24.538 97.527,30.619 91.444,24.538 			"/>
			<polygon fill="#8E5099" points="115.776,24.538 109.688,30.619 103.604,24.538 			"/>
			<polygon fill="#EF7D2E" points="85.371,30.62 73.203,30.62 79.286,24.538 			"/>
			<polygon fill="#EF7D2E" points="73.209,30.62 61.037,30.62 67.121,24.538 			"/>
			<polygon fill="#09AC88" points="24.559,30.62 12.387,30.62 18.472,24.538 			"/>
			<polygon fill="#61B352" points="36.719,30.62 24.551,30.62 30.633,24.538 			"/>
			<polygon fill="#65B452" points="48.881,30.62 36.712,30.62 42.796,24.538 			"/>
			<polygon fill="#CF9E3D" points="48.871,30.62 61.046,30.62 54.958,24.538 			"/>
			<polygon fill="#A15299" points="97.524,30.62 109.696,30.62 103.604,24.538 			"/>
			<polygon fill="#CD62A1" points="97.532,30.62 85.362,30.62 91.447,24.538 			"/>
			<polygon fill="#84589F" points="121.857,30.62 109.686,30.62 115.768,24.538 			"/>
			<polygon fill="#80569E" points="127.94,24.538 121.852,30.619 115.768,24.538 			"/>
			<polygon fill="#EC6A2C" points="79.291,24.537 67.118,24.537 73.203,18.452 			"/>
			<polygon fill="#09A866" points="30.638,24.537 18.47,24.537 24.555,18.452 			"/>
			<polygon fill="#61B34D" points="54.964,24.537 42.793,24.537 48.875,18.452 			"/>
			<polygon fill="#AE4692" points="103.613,24.537 91.444,24.537 97.527,18.452 			"/>
			<polygon fill="#0EA970" points="24.563,18.453 18.476,24.537 12.395,18.453 			"/>
			<polygon fill="#00A681" points="18.476,24.537 6.307,24.537 12.392,18.452 			"/>
			<polygon fill="#2BA959" points="42.801,24.538 30.633,24.538 36.716,18.453 			"/>
			<polygon fill="#0EA75A" points="36.722,18.453 30.633,24.535 24.551,18.453 			"/>
			<polygon fill="#4FAF55" points="48.881,18.453 42.796,24.537 36.712,18.453 			"/>
			<polygon fill="#ED7538" points="67.124,24.537 54.957,24.537 61.04,18.452 			"/>
			<polygon fill="#EA602C" points="73.209,18.453 67.121,24.537 61.037,18.453 			"/>
			<polygon fill="#EA5A59" points="85.368,18.453 79.285,24.537 73.203,18.453 			"/>
			<polygon fill="#DE4D67" points="91.449,24.537 79.279,24.537 85.362,18.452 			"/>
			<polygon fill="#CB4C7E" points="97.53,18.453 91.446,24.537 85.361,18.453 			"/>
			<polygon fill="#8B3E8F" points="109.694,18.453 103.608,24.537 97.526,18.453 			"/>
			<polygon fill="#7CBB55" points="61.043,18.453 54.957,24.537 48.873,18.453 			"/>
			<polygon fill="#884794" points="115.779,24.537 103.608,24.537 109.691,18.452 			"/>
			<polygon fill="#774292" points="121.86,18.453 115.771,24.537 109.688,18.453 			"/>
			<polygon fill="#774C98" points="127.941,24.537 115.771,24.537 121.854,18.452 			"/>
		</g>
		<g>
			<polygon fill="#00A452" points="36.724,18.453 24.556,18.453 30.638,12.365 			"/>
			<polygon fill="#1BA85F" points="30.644,12.365 24.559,18.452 18.475,12.365 			"/>
			<polygon fill="#38AA51" points="48.88,18.453 36.712,18.453 42.795,12.365 			"/>
			<polygon fill="#E95328" points="73.209,18.453 61.037,18.453 67.118,12.365 			"/>
			<polygon fill="#EB6445" points="79.291,12.368 73.204,18.453 67.118,12.368 			"/>
			<polygon fill="#E7444A" points="85.368,18.453 73.203,18.453 79.285,12.365 			"/>
			<polygon fill="#AA4C96" points="103.61,12.368 97.526,18.453 91.444,12.368 			"/>
			<polygon fill="#83358A" points="109.694,18.453 97.524,18.453 103.605,12.365 			"/>
			<polygon fill="#B7497F" points="97.53,18.453 85.361,18.453 91.446,12.365 			"/>
			<polygon fill="#73358A" points="121.86,18.453 109.686,18.453 115.771,12.365 			"/>
			<polygon fill="#00A360" points="24.563,18.453 12.395,18.453 18.476,12.365 			"/>
			<polygon fill="#02AE99" points="12.167,13.2 0,13.2 6.084,7.118 			"/>
			<polygon fill="#92C145" points="43.402,8.019 31.229,8.019 37.313,1.931 			"/>
			<polygon fill="#EC7080" points="77.45,0.263 89.622,0.263 83.535,6.347 			"/>
			<polygon fill="#2AB2A5" points="12.167,13.2 6.084,19.285 0,13.2 			"/>
			<polygon fill="#A8CD82" points="37.971,48.305 31.885,54.39 25.8,48.305 			"/>
			<polygon fill="#CFDA6A" points="52.723,55.913 58.811,49.829 64.895,55.913 			"/>
			<polygon fill="#E6E67C" points="52.723,55.913 64.895,55.913 58.808,62 			"/>
			<polygon fill="#CD8EBD" points="109.693,42.789 103.608,48.874 97.526,42.789 			"/>
			<polygon fill="#80C6B1" points="24.559,42.789 18.472,48.874 12.387,42.789 			"/>
			<polygon fill="#C4D560" points="48.883,42.789 42.796,48.874 36.712,42.789 			"/>
			<polygon fill="#D8DE62" points="54.964,48.876 42.793,48.876 48.878,42.789 			"/>
			<polygon fill="#EBCA60" points="48.875,42.789 54.958,48.874 61.043,42.789 			"/>
			<polygon fill="#FABE61" points="85.371,42.789 79.286,48.874 73.198,42.789 			"/>
			<polygon fill="#FDCC68" points="79.291,48.876 67.118,48.876 73.204,42.789 			"/>
			<polygon fill="#FBC158" points="73.209,42.789 67.118,48.874 61.037,42.789 			"/>
			<polygon fill="#F198B6" points="97.53,42.789 91.447,48.874 85.362,42.789 			"/>
			<polygon fill="#BE90C0" points="115.776,48.876 103.605,48.876 109.688,42.789 			"/>
			<polygon fill="#A586BD" points="121.857,42.789 115.768,48.874 109.686,42.789 			"/>
			<polygon fill="#55B9A4" points="6.307,36.705 18.476,36.705 12.395,42.791 			"/>
			<polygon fill="#B0CC4D" points="54.964,36.705 48.877,42.789 42.793,36.705 			"/>
			<polygon fill="#6ABEA5" points="24.559,42.789 12.389,42.789 18.472,36.705 			"/>
			<polygon fill="#6EBC8F" points="30.638,36.705 24.555,42.789 18.467,36.705 			"/>
			<polygon fill="#8CC58A" points="36.723,42.789 24.551,42.789 30.633,36.705 			"/>
			<polygon fill="#98C560" points="42.801,36.705 36.712,42.789 30.632,36.705 			"/>
			<polygon fill="#AACA4F" points="48.883,42.789 36.712,42.789 42.796,36.705 			"/>
			<polygon fill="#F7AC3D" points="67.127,36.705 61.042,42.789 54.957,36.705 			"/>
			<polygon fill="#E3B747" points="48.875,42.791 61.043,42.791 54.961,36.705 			"/>
			<polygon fill="#F6A538" points="79.291,36.705 73.204,42.789 67.118,36.705 			"/>
			<polygon fill="#F7AE53" points="85.368,42.791 73.203,42.791 79.285,36.705 			"/>
			<polygon fill="#F8B239" points="73.209,42.791 61.037,42.791 67.123,36.705 			"/>
			<polygon fill="#F39869" points="91.45,36.705 85.365,42.789 79.282,36.705 			"/>
			<polygon fill="#F08EAC" points="97.53,42.789 85.362,42.789 91.446,36.705 			"/>
			<polygon fill="#C774AC" points="103.613,36.705 97.527,42.789 91.444,36.705 			"/>
			<polygon fill="#C87DB2" points="109.694,42.789 97.524,42.789 103.605,36.705 			"/>
			<polygon fill="#9F72AE" points="115.776,36.705 109.688,42.786 103.605,36.705 			"/>
			<polygon fill="#9C7FB8" points="121.857,42.789 109.686,42.789 115.768,36.705 			"/>
			<polygon fill="#947AB5" points="127.936,36.705 121.852,42.786 115.768,36.705 			"/>
			<polygon fill="#43B49B" points="18.476,36.705 6.307,36.705 12.391,30.616 			"/>
			<polygon fill="#F28F2B" points="85.368,30.616 79.285,36.702 73.203,30.616 			"/>
			<polygon fill="#F28F2B" points="73.209,30.616 67.121,36.702 61.037,30.616 			"/>
			<polygon fill="#9BC44B" points="54.964,36.703 42.793,36.703 48.877,30.616 			"/>
			<polygon fill="#49B384" points="30.638,36.703 18.467,36.703 24.552,30.616 			"/>
			<polygon fill="#47B597" points="24.559,30.616 18.472,36.702 12.389,30.616 			"/>
			<polygon fill="#7EBA4B" points="42.801,36.705 30.632,36.705 36.716,30.616 			"/>
			<polygon fill="#73B858" points="48.883,30.616 42.798,36.702 36.712,30.616 			"/>
			<polygon fill="#80BB4F" points="36.719,30.616 30.633,36.702 24.551,30.616 			"/>
			<polygon fill="none" points="48.875,30.616 54.961,36.702 61.043,30.616 			"/>
			<polygon fill="#F3982F" points="67.124,36.703 54.957,36.703 61.04,30.616 			"/>
			<polygon fill="#F08666" points="91.449,36.703 79.282,36.703 85.365,30.616 			"/>
			<polygon fill="#F49D3A" points="79.291,36.703 67.118,36.703 73.203,30.616 			"/>
			<polygon fill="#BC6AA7" points="103.613,36.703 91.444,36.703 97.529,30.616 			"/>
			<polygon fill="#A566A6" points="97.524,30.616 103.608,36.702 109.696,30.616 			"/>
			<polygon fill="#DA6EA7" points="97.532,30.616 91.446,36.702 85.362,30.616 			"/>
			<polygon fill="#9563A5" points="115.776,36.703 103.605,36.703 109.686,30.616 			"/>
			<polygon fill="#8861A4" points="121.857,30.616 115.771,36.702 109.686,30.616 			"/>
			<polygon fill="#8C6CAC" points="127.94,36.703 115.768,36.703 121.849,30.616 			"/>
			<polygon fill="#B091C3" points="128.832,27.664 128.873,27.705 134.878,33.711 140.882,27.705 140.92,27.664 140.882,27.624 
				134.878,21.622 128.873,27.624 			"/>
			<polygon fill="#9E7EB6" points="128.832,27.705 134.916,21.621 141,27.705 			"/>
			<polygon fill="#ED7225" points="79.291,24.538 73.203,30.62 67.118,24.538 			"/>
			<polygon fill="#73B855" points="54.964,24.538 48.875,30.62 42.793,24.538 			"/>
			<polygon fill="#BCB64A" points="61.049,30.618 54.961,36.7 48.878,30.618 			"/>
			<polygon fill="#38AE75" points="30.638,24.538 24.555,30.62 18.47,24.538 			"/>
			<polygon fill="#00AB8C" points="18.476,24.538 12.392,30.62 6.307,24.538 			"/>
			<polygon fill="#53AF4F" points="42.801,24.538 36.716,30.619 30.632,24.538 			"/>
			<polygon fill="#F0843C" points="67.127,24.538 61.04,30.619 54.957,24.538 			"/>
			<polygon fill="#EB5E6F" points="91.449,24.538 85.365,30.619 79.282,24.538 			"/>
			<polygon fill="#B54D96" points="103.613,24.538 97.527,30.619 91.444,24.538 			"/>
			<polygon fill="#8E5099" points="115.776,24.538 109.688,30.619 103.604,24.538 			"/>
			<polygon fill="#EF7D2E" points="85.371,30.62 73.203,30.62 79.286,24.538 			"/>
			<polygon fill="#EF7D2E" points="73.209,30.62 61.037,30.62 67.121,24.538 			"/>
			<polygon fill="#09AC88" points="24.559,30.62 12.387,30.62 18.472,24.538 			"/>
			<polygon fill="#61B352" points="36.719,30.62 24.551,30.62 30.633,24.538 			"/>
			<polygon fill="#65B452" points="48.881,30.62 36.712,30.62 42.796,24.538 			"/>
			<polygon fill="#CF9E3D" points="48.871,30.62 61.046,30.62 54.958,24.538 			"/>
			<polygon fill="#A15299" points="97.524,30.62 109.696,30.62 103.604,24.538 			"/>
			<polygon fill="#CD62A1" points="97.532,30.62 85.362,30.62 91.447,24.538 			"/>
			<polygon fill="#84589F" points="121.857,30.62 109.686,30.62 115.768,24.538 			"/>
			<polygon fill="#80569E" points="127.94,24.538 121.852,30.619 115.768,24.538 			"/>
			<polygon fill="#EC6A2C" points="79.291,24.537 67.118,24.537 73.203,18.452 			"/>
			<polygon fill="#09A866" points="30.638,24.537 18.47,24.537 24.555,18.452 			"/>
			<polygon fill="#61B34D" points="54.964,24.537 42.793,24.537 48.875,18.452 			"/>
			<polygon fill="#AE4692" points="103.613,24.537 91.444,24.537 97.527,18.452 			"/>
			<polygon fill="#0EA970" points="24.563,18.453 18.476,24.537 12.395,18.453 			"/>
			<polygon fill="#00A681" points="18.476,24.537 6.307,24.537 12.392,18.452 			"/>
			<polygon fill="#2BA959" points="42.801,24.538 30.633,24.538 36.716,18.453 			"/>
			<polygon fill="#0EA75A" points="36.722,18.453 30.633,24.535 24.551,18.453 			"/>
			<polygon fill="#4FAF55" points="48.881,18.453 42.796,24.537 36.712,18.453 			"/>
			<polygon fill="#ED7538" points="67.124,24.537 54.957,24.537 61.04,18.452 			"/>
			<polygon fill="#EA602C" points="73.209,18.453 67.121,24.537 61.037,18.453 			"/>
			<polygon fill="#EA5A59" points="85.368,18.453 79.285,24.537 73.203,18.453 			"/>
			<polygon fill="#DE4D67" points="91.449,24.537 79.279,24.537 85.362,18.452 			"/>
			<polygon fill="#CB4C7E" points="97.53,18.453 91.446,24.537 85.361,18.453 			"/>
			<polygon fill="#8B3E8F" points="109.694,18.453 103.608,24.537 97.526,18.453 			"/>
			<polygon fill="#7CBB55" points="61.043,18.453 54.957,24.537 48.873,18.453 			"/>
			<polygon fill="#884794" points="115.779,24.537 103.608,24.537 109.691,18.452 			"/>
			<polygon fill="#774292" points="121.86,18.453 115.771,24.537 109.688,18.453 			"/>
			<polygon fill="#774C98" points="127.941,24.537 115.771,24.537 121.854,18.452 			"/>
		</g>
	</g>
	<path fill-rule="evenodd" clip-rule="evenodd" fill="#FFFFFF" d="M96.273,33.476c0.356-1.803,0.362-3.594,0.015-5.32
		c-0.506-2.499-1.695-3.481-4.242-3.5h-0.072c-0.722,0-1.456,0.082-2.167,0.159c-0.341,0.038-0.679,0.074-1.017,0.102l-0.232,0.02
		v-4.685h-3.497c0.012,3.028,0.015,6.806,0.021,10.352l0.008,5.42c0.117,0.089,0.475,0.311,1.33,0.565
		c1.804,0.542,3.784,0.687,5.881,0.436C94.771,36.726,95.812,35.797,96.273,33.476z M90.968,34.808
		c-0.25,0.009-0.497,0.014-0.747,0.014l0,0c-0.201,0-0.401-0.003-0.606-0.005c-0.207-0.001-0.414-0.003-0.626-0.003h-0.215v-7.771
		l0.21-0.004c0.237-0.004,0.476-0.015,0.717-0.028c0.657-0.03,1.333-0.045,1.852,0.034c0.431,0.064,0.919,0.506,0.991,1.135
		c0.288,1.594,0.285,3.446-0.006,5.204C92.38,34.333,91.896,34.772,90.968,34.808z"/>
	<path fill-rule="evenodd" clip-rule="evenodd" fill="#FFFFFF" d="M48.741,24.817c-0.745-0.134-1.509-0.202-2.271-0.202
		c-1.632,0-3.343,0.314-5.087,0.932c-0.539,0.192-0.882,0.387-0.882,0.387c-0.018,0.323-0.002,1.465-0.002,1.789
		c-0.001,4.41,0,9.504,0.003,13.938c0.499-0.004,1.764-0.013,2.676-0.013c0.381,0,0.635,0,0.808,0.006l0.033-4.776
		c0,0,1.001,0.146,1.365,0.172c0.766,0.055,1.493,0.025,2.276,0.025h0.151c1.848-0.019,3.192-1.023,3.689-2.758
		c0.622-2.175,0.641-4.491,0.06-6.882C51.206,25.991,50.232,25.086,48.741,24.817z M47.95,33.419
		c-0.128,0.835-0.699,1.354-1.532,1.385c-0.256,0.009-0.509,0.012-0.769,0.012c-0.198,0-0.519-0.037-1.199-0.075l-0.268-0.054
		l0.009-7.313c0,0,0.701-0.17,0.941-0.207c0.567-0.087,1.148-0.083,1.721-0.026c0.595,0.06,1.008,0.463,1.116,1.148
		C48.239,30.013,48.226,31.592,47.95,33.419z"/>
	<path fill-rule="evenodd" clip-rule="evenodd" fill="#FFFFFF" d="M109.665,34.092c0.228-0.898,0.308-1.909,0.341-2.821
		c0.037-0.984-0.049-1.725-0.134-2.414l-0.015-0.134c-0.271-2.224-1.339-3.481-3.411-3.836c-0.737-0.126-1.517-0.189-2.317-0.189
		c-0.608,0-1.229,0.037-1.841,0.109c-2.258,0.273-3.494,1.41-3.823,3.715c-0.189,1.321-0.26,3.354,0.062,5.005
		c0.336,1.734,1.328,2.828,2.947,3.253c1.928,0.507,3.829,0.482,5.628-0.076C108.472,36.279,109.335,35.399,109.665,34.092z
		 M106.14,33.334c-0.032,0.669-0.381,1.476-1.855,1.524c-0.049,0.003-0.096,0.003-0.143,0.003c-1.063,0-1.676-0.424-1.927-1.339
		c-0.058-0.213-0.113-0.417-0.117-0.628c-0.011-0.491-0.046-0.839-0.046-1.331l-0.012-0.694c-0.006-0.696,0.1-2.134,0.166-2.521
		c0.177-1.042,0.863-1.516,2.099-1.469c1.19,0.046,1.794,0.573,1.844,1.609C106.224,30.058,106.221,31.69,106.14,33.334z"/>
	<path fill-rule="evenodd" clip-rule="evenodd" fill="#FFFFFF" d="M64.985,27.685c-0.043-1.481-0.843-2.416-2.378-2.781
		c-0.844-0.201-1.738-0.302-2.654-0.302c-1.299,0-2.703,0.202-4.293,0.615c-0.494,0.128-0.873,0.258-1.082,0.333
		c0.073,0.231,0.195,0.634,0.289,1.031c0.013,0.052,0.048,0.17,0.087,0.31c0.077,0.263,0.138,0.482,0.179,0.643
		c0.096-0.016,0.238-0.04,0.442-0.073l0.507-0.089c1.196-0.207,2.432-0.42,3.657-0.421c0.629,0,1.04,0.135,1.3,0.423
		c0.385,0.432,0.422,1.029,0.368,2.123v0.268c0,0-0.948-0.141-1.741-0.119c-0.942,0.026-1.86,0.083-2.888,0.26
		c-1.074,0.184-1.951,0.762-2.464,1.626c-0.612,1.024-0.705,2.215-0.255,3.264c0.434,1.022,1.325,1.755,2.441,2.011
		c2.372,0.547,4.798,0.476,7.135-0.21c0.764-0.222,1.173-0.399,1.348-0.483C64.991,35.216,65.048,29.863,64.985,27.685z
		 M61.419,31.868c0,0.542-0.001,0.943-0.003,1.358c-0.001,0.446-0.01,0.735-0.01,1.407v0.145c0,0-0.827,0.242-1.573,0.255
		c-0.332,0.008-0.603-0.007-0.859-0.024c-1.128-0.077-1.87-0.734-1.891-1.675c-0.023-0.91,0.582-1.47,1.667-1.663
		c0.643-0.115,1.411-0.131,2.215-0.043l0.44,0.075L61.419,31.868z"/>
	<path fill-rule="evenodd" clip-rule="evenodd" fill="#FFFFFF" d="M34.091,37.079c2.487-0.15,3.855-1.287,4.064-3.38
		c0.225-2.256-0.651-3.554-2.682-3.968c-0.235-0.049-0.539-0.096-0.852-0.143c-0.425-0.065-0.864-0.134-1.186-0.213
		c-0.81-0.195-1.238-0.7-1.175-1.385c0.062-0.679,0.566-1.103,1.349-1.137c0.283-0.013,0.635-0.021,0.995-0.021
		c0.603,0,1.087,0.024,1.441,0.076c0.514,0.071,1.102,0.151,1.4,0.19c0.058-0.261,0.166-0.773,0.283-1.388
		c0.031-0.166,0.072-0.407,0.101-0.579c-0.163-0.031-0.39-0.07-0.562-0.096c-0.926-0.14-2.634-0.339-3.167-0.375h-0.168
		c-0.132,0-0.265-0.001-0.397-0.004c-0.278-0.004-0.557-0.009-0.834,0.009c-2.224,0.138-3.503,1.237-3.702,3.173
		c-0.231,2.253,0.579,3.395,2.709,3.824c0.244,0.049,0.546,0.099,0.861,0.149c0.488,0.08,0.992,0.163,1.37,0.257
		c0.548,0.137,0.906,0.687,0.912,1.402c0.005,0.638-0.291,1.072-0.854,1.257c-0.297,0.097-1,0.181-1.292,0.146
		c-0.987-0.119-2.475-0.328-3.53-0.514l-0.458,2.072c1.526,0.402,3.375,0.661,4.772,0.661
		C33.697,37.095,33.898,37.089,34.091,37.079z"/>
	<path fill-rule="evenodd" clip-rule="evenodd" fill="#FFFFFF" d="M72.47,37.109c2.489-0.149,3.858-1.286,4.065-3.379
		c0.226-2.257-0.651-3.554-2.681-3.968c-0.234-0.048-0.538-0.094-0.85-0.143c-0.427-0.066-0.865-0.135-1.188-0.212
		c-0.808-0.196-1.237-0.702-1.175-1.386c0.061-0.68,0.565-1.104,1.348-1.137c0.283-0.013,0.634-0.022,0.994-0.022
		c0.603,0,1.088,0.025,1.442,0.074c0.513,0.072,1.103,0.152,1.398,0.192c0.059-0.262,0.168-0.773,0.286-1.388
		c0.031-0.166,0.072-0.407,0.099-0.578c-0.16-0.029-0.389-0.07-0.559-0.096c-0.928-0.138-2.637-0.339-3.169-0.375h-0.169
		c-0.131,0-0.264-0.001-0.396-0.003c-0.276-0.007-0.557-0.01-0.835,0.007c-2.225,0.139-3.503,1.237-3.701,3.173
		c-0.233,2.253,0.579,3.397,2.708,3.823c0.242,0.051,0.545,0.098,0.855,0.15c0.491,0.079,0.997,0.163,1.374,0.258
		c0.55,0.138,0.908,0.688,0.914,1.401c0.006,0.638-0.291,1.074-0.855,1.259c-0.296,0.095-0.997,0.181-1.29,0.145
		c-0.987-0.119-2.475-0.328-3.531-0.512l-0.458,2.07c1.525,0.404,3.375,0.662,4.769,0.662C72.075,37.126,72.276,37.12,72.47,37.109z
		"/>
	<path fill-rule="evenodd" clip-rule="evenodd" fill="#FFFFFF" d="M78.79,36.862h3.7c-0.012-1.102-0.004-2.469,0.003-3.793
		c0.003-0.717,0.009-1.404,0.009-1.995l-0.003-1.505c-0.003-1.355-0.006-2.882,0.008-4.144h-3.702
		c0.01,3.13-0.003,7.19-0.012,10.467L78.79,36.862z"/>
	<circle fill-rule="evenodd" clip-rule="evenodd" fill="#FFFFFF" cx="80.659" cy="22.503" r="1.854"/>
	<g>
		<path fill="#2B9150" d="M68.546,53.558h1.416c1.047,0,1.557,0.417,1.557,1.171c0,0.411-0.243,0.728-0.525,0.853v0.014
			c0.356,0.087,0.843,0.43,0.843,1.046c0,0.779-0.456,1.321-1.688,1.321h-1.602V53.558z M69.924,55.413
			c0.497,0,0.747-0.174,0.747-0.597c0-0.456-0.3-0.604-0.861-0.604h-0.408v1.201H69.924z M70.065,57.289
			c0.586,0,0.916-0.148,0.916-0.623c0-0.474-0.335-0.648-0.996-0.648h-0.584v1.271H70.065z"/>
		<path fill="#2B9150" d="M73.656,56.448l-1.558-2.891h0.977l1.034,2.168l1.104-2.168h0.947l-1.658,2.872v1.532h-0.847V56.448z"/>
		<path fill="#2B9150" d="M77.843,57.701l0.25-0.648c0.36,0.155,0.665,0.274,1.128,0.274c0.512,0,0.872-0.2,0.872-0.58
			c0-0.865-2.125-0.58-2.125-2.056c0-0.792,0.735-1.202,1.482-1.202c0.625,0,0.967,0.131,1.265,0.305l-0.247,0.629
			c-0.306-0.138-0.581-0.225-0.992-0.225c-0.386,0-0.674,0.181-0.674,0.498c0,0.742,2.151,0.643,2.151,2.013
			c0,0.917-0.842,1.327-1.732,1.327C78.566,58.036,78.143,57.869,77.843,57.701z"/>
		<path fill="#2B9150" d="M81.743,53.558h1.415c1.048,0,1.558,0.417,1.558,1.171c0,0.411-0.242,0.728-0.523,0.853v0.014
			c0.356,0.087,0.842,0.43,0.842,1.046c0,0.779-0.454,1.321-1.688,1.321h-1.603V53.558z M83.121,55.413
			c0.497,0,0.748-0.174,0.748-0.597c0-0.456-0.3-0.604-0.861-0.604h-0.409v1.201H83.121z M83.265,57.289
			c0.585,0,0.915-0.148,0.915-0.623c0-0.474-0.336-0.648-0.997-0.648h-0.584v1.271H83.265z"/>
		<path fill="#2B9150" d="M85.882,53.558h2.729v0.673h-1.881v1.201h1.744v0.637h-1.744v1.221h2.025v0.673h-2.873V53.558z"/>
		<path fill="#2B9150" d="M91.764,57.047l-0.555-0.711c-0.087,0.012-0.205,0.02-0.306,0.02h-0.43v1.606H89.62v-4.404h1.607
			c0.936,0,1.595,0.436,1.595,1.383c0,0.498-0.235,0.946-0.753,1.196l0.504,0.61c0.263,0.306,0.523,0.518,0.984,0.642l-0.191,0.655
			C92.631,57.987,92.2,57.582,91.764,57.047z M90.941,55.731c0.648,0,1.003-0.243,1.003-0.761c0-0.536-0.25-0.74-0.853-0.74h-0.618
			v1.501H90.941z"/>
		<path fill="#2B9150" d="M94.15,53.558h1.415c1.048,0,1.558,0.417,1.558,1.171c0,0.411-0.242,0.728-0.524,0.853v0.014
			c0.356,0.087,0.843,0.43,0.843,1.046c0,0.779-0.456,1.321-1.688,1.321H94.15V53.558z M95.528,55.413
			c0.497,0,0.748-0.174,0.748-0.597c0-0.456-0.3-0.604-0.861-0.604h-0.411v1.201H95.528z M95.671,57.289
			c0.586,0,0.916-0.148,0.916-0.623c0-0.474-0.337-0.648-0.997-0.648h-0.586v1.271H95.671z"/>
		<path fill="#2B9150" d="M99.398,53.558h1.102l1.527,4.404h-0.891l-0.48-1.427h-1.59l-0.54,1.427h-0.867L99.398,53.558z
			 M100.444,55.906L99.916,54.1l-0.612,1.807H100.444z"/>
		<path fill="#2B9150" d="M102.651,53.558h1.008l1.945,3.326h0.012l-0.024-0.518v-2.809h0.854v4.404h-1.048l-1.9-3.258h-0.023
			l0.023,0.535v2.723h-0.846V53.558z"/>
		<path fill="#2B9150" d="M107.586,53.558h0.847v2.012l1.664-2.012h1.084l-1.8,2.049l1.906,2.355h-1.09l-1.765-2.331v2.331h-0.847
			V53.558z"/>
	</g>
</g>
</svg>
